<?xml version="1.0" encoding="utf-8"?>
<!-- Generator: Adobe Illustrator 19.2.0, SVG Export Plug-In . SVG Version: 6.00 Build 0)  -->
<svg version="1.1" id="Layer_1" xmlns="http://www.w3.org/2000/svg" xmlns:xlink="http://www.w3.org/1999/xlink" x="0px" y="0px"
	 viewBox="0 0 103 103" style="enable-background:new 0 0 103 103;" xml:space="preserve">
<style type="text/css">
	.st0{fill:#777777;}
</style>
<g>
	<path class="st0" d="M67.2,39.2l-3.4,6c7.4,4.2,12.3,12.1,12.3,21.2c0,13.4-10.9,24.3-24.3,24.3c-13.4,0-24.3-10.9-24.3-24.3
		c0-9.1,5-17,12.3-21.2l-3.4-6C27,44.6,20.6,54.7,20.6,66.3c0,17.2,14,31.2,31.2,31.2C69,97.5,83,83.5,83,66.3
		C83,54.7,76.6,44.6,67.2,39.2z"/>
	<path class="st0" d="M75.1,13L75.1,13L75.1,13L75.1,13L75,13L51.8,5.2L28.8,13l0,0l0,0l-0.1,0l0,0l-8.8,9.1l0.1,0l-0.1,0.1
		l31.9,38.1l32.1-38.2l0.1-0.1L75.1,13z M71.1,14.6L62.8,18l-7.6-8.8L71.1,14.6z M62.9,27.5H41l1.4-6h18.9l1.1,3.8L62.9,27.5z
		 M51.8,9.9l7.5,8.6h-15L51.8,9.9z M48.5,9.2l-7.6,8.7l-8.3-3.4L48.5,9.2z M29.4,16.2l10.3,4.2L38,27.2l-13.5-5.9L29.4,16.2z
		 M25.5,24.6l12.6,5.6L48,51.6L25.5,24.6z M40.9,29.5H63L51.8,53.1L40.9,29.5z M55.7,51.5l10.1-21.3l12.5-5.5L55.7,51.5z M65.9,27.2
		L65,24.1l-0.8-3.7l10.2-4.2l5,5.1L65.9,27.2z"/>
</g>
</svg>
